<mxfile host="app.diagrams.net" modified="2024-02-03T12:35:18.906Z" agent="Mozilla/5.0 (Macintosh; Intel Mac OS X 10_15_7) AppleWebKit/605.1.15 (KHTML, like Gecko) Version/17.1.2 Safari/605.1.15" etag="ATrZf7Q26Flu18pCdLMS" version="23.1.1" type="github">
  <diagram name="第 1 页" id="VZQdLEM1IsBK7rEyQwVS">
    <mxGraphModel dx="944" dy="1018" grid="1" gridSize="10" guides="1" tooltips="1" connect="1" arrows="1" fold="1" page="1" pageScale="1" pageWidth="827" pageHeight="1169" math="0" shadow="0">
      <root>
        <mxCell id="0" />
        <mxCell id="1" parent="0" />
        <mxCell id="Fa_eEM4r43EhqnQRN5v_-3" value="套接字文件系统（Socket FS）" style="rounded=1;whiteSpace=wrap;html=1;" vertex="1" parent="1">
          <mxGeometry x="80" y="160" width="520" height="30" as="geometry" />
        </mxCell>
        <mxCell id="Fa_eEM4r43EhqnQRN5v_-7" value="网络设备驱动（Network Device Driver）" style="rounded=1;whiteSpace=wrap;html=1;" vertex="1" parent="1">
          <mxGeometry x="80" y="410" width="520" height="40" as="geometry" />
        </mxCell>
        <mxCell id="Fa_eEM4r43EhqnQRN5v_-14" value="BSD套接字层" style="rounded=1;whiteSpace=wrap;html=1;" vertex="1" parent="1">
          <mxGeometry x="80" y="200" width="520" height="40" as="geometry" />
        </mxCell>
        <mxCell id="Fa_eEM4r43EhqnQRN5v_-21" value="系统调用（System Call）" style="rounded=1;whiteSpace=wrap;html=1;" vertex="1" parent="1">
          <mxGeometry x="80" y="120" width="520" height="30" as="geometry" />
        </mxCell>
      </root>
    </mxGraphModel>
  </diagram>
</mxfile>
